<svg xmlns="http://www.w3.org/2000/svg" viewBox="0 0 512 512"><title>Device_Game</title><g id="Device_Game" data-name="Device Game"><g id="Device_Game-2" data-name="Device Game"><path d="M307.1893,226.7329a10.6961,10.6961,0,1,1-10.7,10.7046A10.7089,10.7089,0,0,1,307.1893,226.7329Z"/><path d="M324.4468,209.4889a10.6961,10.6961,0,1,1-10.6956,10.7046A10.6906,10.6906,0,0,1,324.4468,209.4889Z"/><polygon points="188.726 216.898 172.976 216.898 172.976 231.866 158.017 231.866 158.017 247.616 172.976 247.616 172.976 262.574 188.726 262.574 188.726 247.616 203.694 247.616 203.694 231.866 188.726 231.866 188.726 216.898"/><path d="M255.9982,73.82A182.1741,182.1741,0,0,0,73.8229,255.991C73.8229,356.6,155.3854,438.18,255.9982,438.18c100.6083,0,182.1789-81.5715,182.1789-182.1888C438.1771,155.3827,356.6065,73.82,255.9982,73.82ZM349.6009,336.262H333.4693l-34.7481-55.4238H213.2788L178.5307,336.262h-16.128a23.0192,23.0192,0,0,1-23.0265-23.0184l5.1147-80.5869c0-.2547.0351-.4572.04-.7038-.0045-.2547-.04-.5094-.04-.7641a49.2782,49.2782,0,0,1,49.2714-49.2714c11.2761,0,19.09,3.84,27.3915,10.2213,10.63-3.0933,15.921-5.7483,30.3309-6.5385h9.0306c14.41.79,19.6965,3.4452,30.3309,6.5385,8.3061-6.381,16.1064-10.2213,27.387-10.2213a49.2782,49.2782,0,0,1,49.2714,49.2714c0,.2547-.0351.5094-.04.7641.0045.2466.04.4491.04.7038l5.1156,80.5869A23.0154,23.0154,0,0,1,349.6009,336.262Z"/><ellipse cx="341.7043" cy="237.4375" rx="10.701" ry="10.6965"/><path d="M324.4468,243.994A10.701,10.701,0,1,1,313.7512,254.7,10.7052,10.7052,0,0,1,324.4468,243.994Z"/></g></g></svg>